<svg width="1024" height="1024" xmlns="http://www.w3.org/2000/svg" class="icon">

 <g>
  <title>background</title>
  <rect fill="none" id="canvas_background" height="402" width="582" y="-1" x="-1"/>
 </g>
 <g>
  <title>Layer 1</title>
  <path id="svg_1" fill="#444B54" d="m749.6,106.4c-66.4,-64.8 -152.8,-100 -244,-98.4c-186.4,4 -337.6,157.6 -337.6,344l0,80c0,182.4 88,352 234.4,454.4c48.8,33.6 83.2,49.6 109.6,49.6c16.8,0 44.8,-6.4 116.8,-59.2c142.4,-104 227.2,-272 227.2,-449.6l0,-69.6c0,-93.6 -38.4,-184.8 -106.4,-251.2z"/>
  <path id="svg_2" fill="#FFFFFF" d="m912,992c0,-220.8 -179.2,-400 -400,-400s-400,179.2 -400,400l0,24l800,0l0,-24z"/>
  <path id="svg_3" fill="#444B54" d="m912,1016c-13.6,0 -24,-10.4 -24,-24c0,-207.2 -168.8,-376 -376,-376s-376,168.8 -376,376c0,13.6 -10.4,24 -24,24s-24,-10.4 -24,-24c0,-233.6 190.4,-424 424,-424s424,190.4 424,424c0,13.6 -10.4,24 -24,24z"/>
  <path id="svg_4" fill="#FFFFFF" d="m512,392m-280,0a280,280 0 1 0 560,0a280,280 0 1 0 -560,0z"/>
  <path stroke="null" id="svg_15" d="m510.655881,566.963539c35.319595,0.010744 69.061064,1.482111 101.015807,3.94019l-25.289876,10.523662l179.517086,0l-44.890752,-18.705102l-44.856485,-18.69951l-23.612811,9.853443c-44.25416,-3.892741 -91.961822,-6.071335 -141.8508,-6.071335c-229.635279,0 -415.761885,44.784489 -415.761885,100.034053c0,22.930385 32.41487,43.998388 86.360339,60.878149l63.218745,-11.678439c-43.62959,-13.641167 -69.862099,-30.663442 -70.00443,-49.19419c0.317763,-44.668543 150.521617,-80.812431 336.155028,-80.88092l0.000033,0zm329.44537,20.018347l-63.218612,11.684032c43.618601,13.635975 69.851243,30.647522 69.971261,49.183774c-0.317796,44.668174 -150.521617,80.806895 -336.165817,80.880504c-32.897242,-0.010232 -64.369779,-1.297228 -94.373185,-3.449558l23.7986,-9.901196l-179.516287,0l44.857551,18.694751l44.88992,18.720534l25.026794,-10.449508c42.445255,3.555128 87.872195,5.538519 135.316608,5.543679c229.668414,-0.010296 415.763084,-44.794824 415.817032,-100.044429c-0.053948,-22.930337 -32.491863,-43.993196 -86.403864,-60.862573l0,-0.000008z" stroke-opacity="null" stroke-width="null" fill="#8CD79F"/>
  <path id="svg_5" class="selected" fill="#FFFFFF" d="m512,392m-280,0a280,280 0 1 0 560,0a280,280 0 1 0 -560,0z"/>
  <path id="svg_6" class="selected" fill="#444B54" d="m608,392m-32,0a32,32 0 1 0 64,0a32,32 0 1 0 -64,0z"/>
  <path id="svg_7" fill="#FFFFFF" d="m376.8,352.8l78.4,78.4"/>
  <path id="svg_9" fill="#FFFFFF" d="m455.2,352.8l-78.4,78.4"/>
  <path id="svg_11" fill="#FFFFFF" d="m208,504c-44,0 -80,-36 -80,-80s36,-80 80,-80l56,0l0,160l-56,0z"/>
  <path id="svg_12" fill="#FFFFFF" d="m816,344c44,0 80,36 80,80s-36,80 -80,80l-48,0l0,-160l48,0z"/>
  <path id="svg_13" fill="#444B54" d="m816,320c-3.2,0 -5.6,0.8 -8,1.6c-4.8,-19.2 -11.2,-38.4 -19.2,-56l3.2,-1.6l0,-27.2c-54.4,-98.4 -159.2,-164.8 -280,-164.8c-28,0 -54.4,3.2 -80,10.4c-44,11.2 -84.8,32 -119.2,60c-56,44 -96,107.2 -112.8,178.4c-53.6,4 -96,48.8 -96,104c0,57.6 46.4,104 104,104l32,0c50.4,99.2 152.8,168 272,168s221.6,-68.8 272,-168l32,0c57.6,0 104,-46.4 104,-104s-46.4,-104.8 -104,-104.8zm-608,160c-31.2,0 -56,-24.8 -56,-56s24.8,-56 56,-56l0.8,0c-0.8,8 -0.8,16 -0.8,24c0,30.4 4.8,60 12.8,88l-12.8,0zm304,168c-140.8,0 -256,-115.2 -256,-256c0,-13.6 0.8,-27.2 3.2,-40c56.8,-20 106.4,-59.2 137.6,-112c80,62.4 188,88 296,54.4l49.6,-15.2c16,34.4 25.6,72.8 25.6,112.8c0,140.8 -115.2,256 -256,256zm304,-168l-12.8,0c8.8,-28 12.8,-57.6 12.8,-88c0,-8 -0.8,-16 -0.8,-24l0.8,0c31.2,0 56,24.8 56,56s-24.8,56 -56,56z"/>
  <path id="svg_14" class="selected" fill="#444B54" d="m415.692307,387.384615m-32,0a32,32 0 1 0 64,0a32,32 0 1 0 -64,0z"/>
 </g>
</svg>