<svg width="1024" height="1024" xmlns="http://www.w3.org/2000/svg" class="icon">

 <g>
  <title>background</title>
  <rect fill="none" id="canvas_background" height="402" width="582" y="-1" x="-1"/>
 </g>
 <g>
  <title>Layer 1</title>
  <path id="svg_1" fill="#444B54" d="m749.6,106.4c-66.4,-64.8 -152.8,-100 -244,-98.4c-186.4,4 -337.6,157.6 -337.6,344l0,80c0,182.4 88,352 234.4,454.4c48.8,33.6 83.2,49.6 109.6,49.6c16.8,0 44.8,-6.4 116.8,-59.2c142.4,-104 227.2,-272 227.2,-449.6l0,-69.6c0,-93.6 -38.4,-184.8 -106.4,-251.2z"/>
  <path transform="rotate(2 511.99999999999415,803.9999999999995) " id="svg_2" fill="#FFFFFF" d="m912,992c0,-220.8 -179.2,-400 -400,-400s-400,179.2 -400,400l0,24l800,0l0,-24z"/>
  <path id="svg_3" fill="#444B54" d="m912,1016c-13.6,0 -24,-10.4 -24,-24c0,-207.2 -168.8,-376 -376,-376s-376,168.8 -376,376c0,13.6 -10.4,24 -24,24s-24,-10.4 -24,-24c0,-233.6 190.4,-424 424,-424s424,190.4 424,424c0,13.6 -10.4,24 -24,24z"/>
  <path id="svg_4" fill="#FFFFFF" d="m512,392m-280,0a280,280 0 1 0 560,0a280,280 0 1 0 -560,0z"/>
  <path id="svg_5" class="selected" fill="#FFFFFF" d="m512,392m-280,0a280,280 0 1 0 560,0a280,280 0 1 0 -560,0z"/>
  <path id="svg_6" class="selected" fill="#444B54" d="m408.000015,390.245614m-32,0a32,32 0 1 0 64,0a32,32 0 1 0 -64,0z"/>
  <path id="svg_7" fill="#FFFFFF" d="m376.8,352.8l78.4,78.4"/>
  <path id="svg_9" fill="#FFFFFF" d="m455.2,352.8l-78.4,78.4"/>
  <path id="svg_11" fill="#FFFFFF" d="m208,504c-44,0 -80,-36 -80,-80s36,-80 80,-80l56,0l0,160l-56,0z"/>
  <path id="svg_12" fill="#FFFFFF" d="m816,344c44,0 80,36 80,80s-36,80 -80,80l-48,0l0,-160l48,0z"/>
  <path id="svg_13" fill="#444B54" d="m816,320c-3.2,0 -5.6,0.8 -8,1.6c-4.8,-19.2 -11.2,-38.4 -19.2,-56l3.2,-1.6l0,-27.2c-54.4,-98.4 -159.2,-164.8 -280,-164.8c-28,0 -54.4,3.2 -80,10.4c-44,11.2 -84.8,32 -119.2,60c-56,44 -96,107.2 -112.8,178.4c-53.6,4 -96,48.8 -96,104c0,57.6 46.4,104 104,104l32,0c50.4,99.2 152.8,168 272,168s221.6,-68.8 272,-168l32,0c57.6,0 104,-46.4 104,-104s-46.4,-104.8 -104,-104.8zm-608,160c-31.2,0 -56,-24.8 -56,-56s24.8,-56 56,-56l0.8,0c-0.8,8 -0.8,16 -0.8,24c0,30.4 4.8,60 12.8,88l-12.8,0zm304,168c-140.8,0 -256,-115.2 -256,-256c0,-13.6 0.8,-27.2 3.2,-40c56.8,-20 106.4,-59.2 137.6,-112c80,62.4 188,88 296,54.4l49.6,-15.2c16,34.4 25.6,72.8 25.6,112.8c0,140.8 -115.2,256 -256,256zm304,-168l-12.8,0c8.8,-28 12.8,-57.6 12.8,-88c0,-8 -0.8,-16 -0.8,-24l0.8,0c31.2,0 56,24.8 56,56s-24.8,56 -56,56z"/>
  <path id="svg_15" d="m-293.625824,1015.648319c0.05303,0.000067 0.103691,0.009249 0.151668,0.024588l-0.037971,0.065672l0.269533,0l-0.0674,-0.116728l-0.067349,-0.116693l-0.035453,0.06149c-0.066445,-0.024292 -0.138074,-0.037888 -0.212979,-0.037888c-0.344782,0 -0.624239,0.279474 -0.624239,0.624255c0,0.143095 0.048669,0.274569 0.129664,0.379905l0.094919,-0.072878c-0.065507,-0.085127 -0.104893,-0.191353 -0.105107,-0.306993c0.000477,-0.278751 0.225998,-0.504304 0.504714,-0.504731l0,0zm0.49464,0.124923l-0.094918,0.072913c0.06549,0.085094 0.104877,0.191253 0.105057,0.306928c-0.000477,0.278748 -0.225998,0.504269 -0.50473,0.504729c-0.049393,-0.000064 -0.096647,-0.008095 -0.141695,-0.021527l0.035732,-0.061788l-0.269532,0l0.067351,0.116663l0.067399,0.116824l0.037576,-0.065209c0.063729,0.022185 0.131934,0.034563 0.203169,0.034595c0.344832,-0.000064 0.62424,-0.279539 0.624321,-0.62432c-0.000081,-0.143095 -0.048784,-0.274536 -0.12973,-0.379808l0,0z" fill-opacity="null" stroke-opacity="null" stroke-width="1.5" stroke="#000" fill="#8CD79F"/>
  <path id="svg_17" class="selected" fill="#444B54" d="m620.280702,384.982457m-32,0a32,32 0 1 0 64,0a32,32 0 1 0 -64,0z"/>
  <path stroke="#000" transform="rotate(-90 278.3963928222657,397.84075927734375) " id="svg_18" d="m-31.463064,396.70569c0.575928,-21.872359 -0.368511,-43.773954 4.736149,-65.607845c125.431029,7.182399 249.38269,18.934569 372.700103,29.503198c6.620204,-10.7249 3.504244,-19.621332 9.256231,-29.537254c79.224265,20.865829 157.734151,42.028791 233.026384,64.199519c-72.235591,25.149239 -155.092427,46.989619 -236.435631,69.3544c-2.634072,-10.414952 -5.268623,-20.829828 -7.902737,-31.244779c-119.887915,10.075982 -246.673373,20.49357 -367.336421,29.704949c-8.205671,-21.254879 -7.964488,-44.402065 -8.044078,-66.372187z" fill-opacity="null" stroke-opacity="null" stroke-width="1.5" fill="#8CD79F"/>
  <path stroke="#000" transform="rotate(-90 759.0980834960938,399.5951538085937) " id="svg_19" d="m449.238645,398.460076c0.575929,-21.872359 -0.368511,-43.773954 4.736149,-65.607845c125.431029,7.1824 249.382691,18.934569 372.700103,29.503198c6.620205,-10.7249 3.504244,-19.621332 9.256231,-29.537254c79.224266,20.865828 157.734151,42.028791 233.026384,64.199518c-72.235591,25.14924 -155.092427,46.98962 -236.435631,69.3544c-2.634072,-10.414952 -5.268623,-20.829828 -7.902737,-31.244779c-119.887914,10.075982 -246.673373,20.49357 -367.33642,29.704948c-8.205672,-21.254878 -7.964488,-44.402064 -8.044079,-66.372186z" fill-opacity="null" stroke-opacity="null" stroke-width="1.5" fill="#8CD79F"/>
 </g>
</svg>