<svg width="1024" height="1024" xmlns="http://www.w3.org/2000/svg" class="icon">

 <g>
  <title>background</title>
  <rect fill="none" id="canvas_background" height="402" width="582" y="-1" x="-1"/>
 </g>
 <g>
  <title>Layer 1</title>
  <path id="svg_1" fill="#444B54" d="m749.6,106.4c-66.4,-64.8 -152.8,-100 -244,-98.4c-186.4,4 -337.6,157.6 -337.6,344l0,80c0,182.4 88,352 234.4,454.4c48.8,33.6 83.2,49.6 109.6,49.6c16.8,0 44.8,-6.4 116.8,-59.2c142.4,-104 227.2,-272 227.2,-449.6l0,-69.6c0,-93.6 -38.4,-184.8 -106.4,-251.2z"/>
  <path id="svg_2" fill="#FFFFFF" d="m912,992c0,-220.8 -179.2,-400 -400,-400s-400,179.2 -400,400l0,24l800,0l0,-24z"/>
  <path id="svg_3" fill="#444B54" d="m912,1016c-13.6,0 -24,-10.4 -24,-24c0,-207.2 -168.8,-376 -376,-376s-376,168.8 -376,376c0,13.6 -10.4,24 -24,24s-24,-10.4 -24,-24c0,-233.6 190.4,-424 424,-424s424,190.4 424,424c0,13.6 -10.4,24 -24,24z"/>
  <path id="svg_4" fill="#FFFFFF" d="m512,392m-280,0a280,280 0 1 0 560,0a280,280 0 1 0 -560,0z"/>
  <path id="svg_5" class="selected" fill="#FFFFFF" d="m512,392m-280,0a280,280 0 1 0 560,0a280,280 0 1 0 -560,0z"/>
  <path id="svg_6" class="selected" fill="#444B54" d="m608,392m-32,0a32,32 0 1 0 64,0a32,32 0 1 0 -64,0z"/>
  <path id="svg_7" fill="#FFFFFF" d="m376.8,352.8l78.4,78.4"/>
  <path id="svg_9" fill="#FFFFFF" d="m455.2,352.8l-78.4,78.4"/>
  <path id="svg_11" fill="#FFFFFF" d="m208,504c-44,0 -80,-36 -80,-80s36,-80 80,-80l56,0l0,160l-56,0z"/>
  <path id="svg_12" fill="#FFFFFF" d="m816,344c44,0 80,36 80,80s-36,80 -80,80l-48,0l0,-160l48,0z"/>
  <path id="svg_13" fill="#444B54" d="m816,320c-3.2,0 -5.6,0.8 -8,1.6c-4.8,-19.2 -11.2,-38.4 -19.2,-56l3.2,-1.6l0,-27.2c-54.4,-98.4 -159.2,-164.8 -280,-164.8c-28,0 -54.4,3.2 -80,10.4c-44,11.2 -84.8,32 -119.2,60c-56,44 -96,107.2 -112.8,178.4c-53.6,4 -96,48.8 -96,104c0,57.6 46.4,104 104,104l32,0c50.4,99.2 152.8,168 272,168s221.6,-68.8 272,-168l32,0c57.6,0 104,-46.4 104,-104s-46.4,-104.8 -104,-104.8zm-608,160c-31.2,0 -56,-24.8 -56,-56s24.8,-56 56,-56l0.8,0c-0.8,8 -0.8,16 -0.8,24c0,30.4 4.8,60 12.8,88l-12.8,0zm304,168c-140.8,0 -256,-115.2 -256,-256c0,-13.6 0.8,-27.2 3.2,-40c56.8,-20 106.4,-59.2 137.6,-112c80,62.4 188,88 296,54.4l49.6,-15.2c16,34.4 25.6,72.8 25.6,112.8c0,140.8 -115.2,256 -256,256zm304,-168l-12.8,0c8.8,-28 12.8,-57.6 12.8,-88c0,-8 -0.8,-16 -0.8,-24l0.8,0c31.2,0 56,24.8 56,56s-24.8,56 -56,56z"/>
  <path id="svg_14" class="selected" fill="#444B54" d="m415.692307,387.384615m-32,0a32,32 0 1 0 64,0a32,32 0 1 0 -64,0z"/>
  <path transform="rotate(-90 286.0194702148438,465.2921142578125) " id="svg_17" d="m-49.94548,464.129116c0.62445,-22.410874 -0.399558,-44.851702 5.135167,-67.223161c135.998526,7.359236 270.393049,19.400752 404.099888,30.22959c7.177953,-10.988956 3.799475,-20.104425 10.036064,-30.264484c85.898867,21.379561 171.023169,43.063573 252.658732,65.780161c-78.321402,25.768433 -168.158881,48.14654 -256.355207,71.061959c-2.855992,-10.671376 -5.712502,-21.342674 -8.568538,-32.01405c-129.988407,10.32406 -267.455473,20.998138 -398.284318,30.436307c-8.896994,-21.77819 -8.635492,-45.495278 -8.721788,-68.006321z" fill-opacity="null" stroke-opacity="null" stroke-width="null" stroke="null" fill="#8CD79F"/>
  <path transform="rotate(-90 738.6510009765625,451.2570190429687) " id="svg_18" d="m402.686116,450.094028c0.62445,-22.410873 -0.399558,-44.851702 5.135167,-67.22316c135.998526,7.359235 270.393049,19.400752 404.099888,30.229589c7.177953,-10.988955 3.799475,-20.104424 10.036063,-30.264484c85.898868,21.379561 171.023169,43.063573 252.658733,65.78016c-78.321402,25.768433 -168.158881,48.146541 -256.355207,71.061959c-2.855992,-10.671376 -5.712502,-21.342674 -8.568538,-32.01405c-129.988408,10.324061 -267.455473,20.998138 -398.284319,30.436308c-8.896994,-21.778191 -8.635491,-45.495278 -8.721787,-68.006322z" fill-opacity="null" stroke-opacity="null" stroke-width="null" stroke="null" fill="#8CD79F"/>
 </g>
</svg>